<svg xmlns="http://www.w3.org/2000/svg" xmlns:xlink="http://www.w3.org/1999/xlink" viewBox="0 0 618.95 105.31"><defs><style>.cls-1{fill:#12191f;}.cls-2{fill:url(#linear-gradient);}.cls-3{fill:#93a2ad;}.cls-4{fill:url(#linear-gradient-2);}</style><linearGradient id="linear-gradient" y1="52.65" x2="105.31" y2="52.65" gradientUnits="userSpaceOnUse"><stop offset="0" stop-color="#eea600"/><stop offset="0.03" stop-color="#efaa04"/><stop offset="0.26" stop-color="#f6c11f"/><stop offset="0.5" stop-color="#fbd232"/><stop offset="0.74" stop-color="#fedc3d"/><stop offset="1" stop-color="#ffdf41"/></linearGradient><linearGradient id="linear-gradient-2" x1="-826.29" y1="-148.5" x2="-803.45" y2="-148.5" gradientTransform="matrix(1.06, 0.13, -0.11, 0.99, 876.12, 300.19)" gradientUnits="userSpaceOnUse"><stop offset="0" stop-color="#ffdf41"/><stop offset="0.26" stop-color="#fedc3d"/><stop offset="0.5" stop-color="#fbd232"/><stop offset="0.74" stop-color="#f6c11f"/><stop offset="0.97" stop-color="#efaa04"/><stop offset="1" stop-color="#eea600"/></linearGradient></defs><title>HCL_Domino_light</title><g id="Layer_2" data-name="Layer 2"><g id="Layer_2-2" data-name="Layer 2"><rect class="cls-1" x="4" y="4" width="97.31" height="97.31"/><path class="cls-2" d="M101.31,4v97.31H4V4h97.31m0-4H4A4,4,0,0,0,0,4v97.31a4,4,0,0,0,4,4h97.31a4,4,0,0,0,4-4V4a4,4,0,0,0-4-4Z"/><polygon class="cls-3" points="62.72 41.63 49.04 71.89 32.13 72 53.17 25.28 62.72 41.63"/><polygon class="cls-3" points="90.24 44.45 75.13 78.03 51.37 80.01 76.93 23.26 90.24 44.45"/><polygon class="cls-4" points="40.47 39.2 29.21 64.22 13.45 62.76 29.78 26.46 40.47 39.2"/><path class="cls-1" d="M150.53,25.26h9.79V48.42H186.9V25.26h9.79V81H186.9V57.49H160.32V81h-9.79Z"/><path class="cls-1" d="M205.49,53.27v-.16c0-15.83,11.86-28.81,28.65-28.81,10.35,0,16.56,3.59,21.89,8.68l-6.29,7.24c-4.53-4.14-9.23-6.84-15.68-6.84-10.5,0-18.3,8.67-18.3,19.58v.15c0,10.91,7.72,19.74,18.38,19.74,6.85,0,11.23-2.7,16-7.16l6.29,6.37c-5.81,6-12.18,9.87-22.61,9.87C217.51,81.93,205.49,69.27,205.49,53.27Z"/><path class="cls-1" d="M263.11,25.26h9.79v46.8h29.29V81H263.11Z"/><path class="cls-1" d="M332.35,25.26h20.77c17.51,0,29.61,12,29.61,27.7v.15c0,15.68-12.1,27.86-29.61,27.86H332.35Zm9.79,8.91V72.06h11c11.7,0,19.34-7.88,19.34-18.79v-.16c0-10.9-7.64-18.94-19.34-18.94Z"/><path class="cls-1" d="M387.7,60.2V60c0-12,9.55-22,22.44-22s22.37,9.79,22.37,21.81V60C432.51,72,423,81.93,410,81.93S387.7,72.14,387.7,60.2Zm35.18,0V60c0-7.4-5.33-13.53-12.89-13.53-7.72,0-12.66,6.05-12.66,13.37V60c0,7.32,5.33,13.45,12.81,13.45C417.94,73.49,422.88,67.44,422.88,60.2Z"/><path class="cls-1" d="M438.9,39h9.71v6.37c2.71-3.75,6.37-7.25,12.82-7.25,6,0,10.34,3,12.57,7.4,3.34-4.45,7.8-7.4,14.17-7.4,9.15,0,14.72,5.81,14.72,16.08V81h-9.63V57.09c0-6.68-3.1-10.26-8.51-10.26-5.26,0-9,3.66-9,10.42V81h-9.63V57c0-6.52-3.18-10.18-8.51-10.18s-9,4-9,10.42V81H438.9Z"/><path class="cls-1" d="M511.36,23.35h10.35V32.5H511.36Zm.32,15.6h9.71V81h-9.71Z"/><path class="cls-1" d="M530.34,39h9.71v6.44c2.7-3.9,6.6-7.32,13.13-7.32,9.47,0,15,6.37,15,16.08V81h-9.63V57.09c0-6.52-3.26-10.26-9-10.26-5.57,0-9.47,3.9-9.47,10.42V81h-9.71Z"/><path class="cls-1" d="M574.14,60.2V60c0-12,9.55-22,22.45-22S619,47.86,619,59.88V60c0,11.94-9.55,21.89-22.52,21.89C583.62,81.93,574.14,72.14,574.14,60.2Zm35.18,0V60c0-7.4-5.33-13.53-12.89-13.53-7.72,0-12.66,6.05-12.66,13.37V60c0,7.32,5.34,13.45,12.82,13.45C604.39,73.49,609.32,67.44,609.32,60.2Z"/></g></g></svg>